<svg width="25" height="31" viewBox="0 0 25 31" fill="none" xmlns="http://www.w3.org/2000/svg">
<path d="M24.1797 20.0805C24.1796 23.0672 24.1812 26.0245 24.1787 28.9819C24.1779 29.9398 23.6623 30.6016 22.7882 30.7707C22.6367 30.8 22.4777 30.7982 22.3221 30.7982C15.6558 30.7995 8.98957 30.7995 2.32329 30.7991C1.15427 30.7991 0.473722 30.1197 0.473554 28.9459C0.472471 21.3719 0.472976 13.7979 0.472966 6.2239C0.472964 5.0429 0.501837 3.86101 0.464994 2.68116C0.42708 1.46708 1.35214 0.796176 2.33512 0.799327C9.00133 0.820699 15.6676 0.810318 22.3339 0.810663C23.4896 0.810723 24.1757 1.48861 24.1788 2.63881C24.1822 3.89788 24.1779 5.15697 24.1809 6.41604C24.1815 6.67142 24.1274 6.88869 23.8466 6.95876C23.5363 7.03619 23.3044 6.82382 23.3004 6.45119C23.2935 5.80708 23.2985 5.16285 23.2984 4.51867C23.2983 3.86473 23.305 3.2107 23.2961 2.55688C23.2885 2.00188 22.9699 1.69149 22.416 1.69123C18.7852 1.68953 15.1544 1.69025 11.5235 1.69077C11.4567 1.69078 11.39 1.69807 11.3132 1.70255C11.3132 11.1015 11.3132 20.4882 11.3132 29.9195C11.4212 29.9195 11.5323 29.9195 11.6435 29.9195C15.1767 29.9195 18.7099 29.9195 22.2431 29.9195C23.0326 29.9195 23.2983 29.6569 23.2983 28.8742C23.2985 22.2079 23.2982 15.5416 23.2996 8.87532C23.2996 8.73971 23.3 8.5999 23.3312 8.46944C23.3836 8.25008 23.5528 8.14305 23.7661 8.15604C23.9777 8.16893 24.1338 8.28898 24.1659 8.51544C24.1823 8.63059 24.1792 8.74899 24.1792 8.86592C24.1798 12.5944 24.1797 16.3228 24.1797 20.0805ZM10.4204 7.75159C10.4204 5.73662 10.4204 3.72165 10.4204 1.6902C10.2878 1.6902 10.1914 1.6902 10.095 1.6902C7.51862 1.6902 4.94222 1.6901 2.36582 1.69027C1.63693 1.69032 1.35443 1.96799 1.35439 2.69045C1.35392 11.4346 1.35392 20.1787 1.35442 28.9229C1.35446 29.6317 1.64053 29.9193 2.34076 29.9194C4.93667 29.9198 7.53259 29.9196 10.1285 29.9196C10.2226 29.9196 10.3167 29.9196 10.4204 29.9196C10.4204 22.5264 10.4204 15.1683 10.4204 7.75159Z" fill="white"/>
<path d="M21.4805 12.4113C21.7632 12.5103 21.884 12.6943 21.8123 12.9626C21.7434 13.2206 21.5372 13.2869 21.2899 13.2867C18.6158 13.2845 15.9418 13.2859 13.2677 13.2846C12.922 13.2844 12.7298 13.1242 12.7268 12.8476C12.7238 12.5673 12.913 12.4068 13.2576 12.4068C15.9902 12.4066 18.7228 12.4077 21.4805 12.4113Z" fill="white"/>
<path d="M17.7146 15.1C18.934 15.1 20.1241 15.0987 21.3143 15.1009C21.6841 15.1016 21.8965 15.3288 21.8169 15.6418C21.7465 15.9186 21.5347 15.9813 21.277 15.9807C19.7552 15.9776 18.2334 15.9792 16.7116 15.9792C15.5605 15.9792 14.4094 15.9767 13.2583 15.9812C13.0195 15.9821 12.8298 15.9096 12.746 15.6775C12.6346 15.3689 12.8639 15.1017 13.237 15.101C14.5637 15.0986 15.8904 15.1 17.2171 15.1C17.3731 15.1 17.5292 15.1 17.7146 15.1Z" fill="white"/>
<path d="M13.9665 20.4903C16.3954 20.4903 18.7951 20.4903 21.1948 20.4904C21.2729 20.4904 21.352 20.483 21.4287 20.4932C21.6734 20.5257 21.8208 20.6643 21.8289 20.9152C21.837 21.1675 21.6923 21.3104 21.4545 21.3632C21.3984 21.3756 21.3379 21.3691 21.2794 21.3691C18.6163 21.3693 15.9532 21.3693 13.2901 21.3692C13.2511 21.3692 13.2119 21.3709 13.1731 21.3682C12.9006 21.3494 12.7262 21.1763 12.7271 20.9267C12.7279 20.6759 12.9028 20.5005 13.1764 20.4922C13.4298 20.4846 13.6836 20.4904 13.9665 20.4903Z" fill="white"/>
<path d="M13.3928 24.0636C13.2774 24.0624 13.1866 24.0753 13.1024 24.0573C12.8653 24.0066 12.7221 23.8639 12.729 23.6091C12.7355 23.3687 12.8782 23.2391 13.1021 23.1892C13.1488 23.1789 13.1993 23.1848 13.2481 23.1848C15.9311 23.1846 18.6142 23.1846 21.2972 23.1847C21.346 23.1847 21.396 23.1795 21.4433 23.1882C21.685 23.2327 21.831 23.3743 21.8296 23.6252C21.8283 23.8754 21.6825 24.0194 21.4399 24.0589C21.3542 24.0728 21.2646 24.0635 21.1768 24.0635C18.5914 24.0636 16.0059 24.0636 13.3928 24.0636Z" fill="white"/>
<path d="M17.0425 8.84412C16.9481 9.2887 16.4323 9.68537 15.8663 9.77192C14.6637 9.95584 13.5771 9.19369 13.3412 8.00078C13.1176 6.86948 13.8657 5.74081 15.0314 5.4749C15.5835 5.34897 16.1152 5.43006 16.6086 5.71938C16.8968 5.88843 16.9933 6.13699 16.8625 6.37063C16.732 6.60389 16.4774 6.64864 16.1787 6.49081C15.361 6.05872 14.4527 6.43322 14.2277 7.29529C14.0846 7.84327 14.329 8.43138 14.8242 8.73084C15.316 9.02821 15.8357 8.97714 16.2702 8.58876C16.5881 8.30458 16.9006 8.39952 17.0425 8.84412Z" fill="white"/>
<path d="M18.5268 6.9751C18.4172 6.65963 18.3092 6.3678 18.2117 6.07251C18.1134 5.77455 18.2169 5.52193 18.4583 5.44412C18.7163 5.36094 18.9385 5.48156 19.0445 5.78271C19.3122 6.54381 19.5722 7.30761 19.851 8.11573C19.8939 8.02718 19.9257 7.97665 19.944 7.92166C20.1813 7.21196 20.4131 6.50039 20.6541 5.79199C20.7679 5.45753 21.0528 5.33202 21.3139 5.48945C21.5333 5.6217 21.5723 5.82274 21.4981 6.04827C21.1302 7.16562 20.7581 8.28158 20.387 9.39784C20.305 9.64452 20.1412 9.79912 19.8738 9.79887C19.6057 9.79861 19.4462 9.64054 19.3617 9.39547C19.0859 8.59589 18.8093 7.79661 18.5268 6.9751Z" fill="white"/>
<path d="M17.6707 26.5813C17.5124 26.6768 17.3657 26.8145 17.2172 26.8164C15.881 26.8333 14.5444 26.8286 13.208 26.8246C12.8994 26.8237 12.7294 26.6611 12.7273 26.3949C12.7252 26.1322 12.9008 25.9505 13.1985 25.9492C14.5447 25.9434 15.8909 25.9419 17.2371 25.9496C17.6032 25.9516 17.7539 26.1771 17.6707 26.5813Z" fill="white"/>
<path d="M15.1961 18.6741C14.5335 18.6741 13.9001 18.6755 13.2668 18.6735C12.9207 18.6724 12.73 18.5162 12.7268 18.2389C12.7237 17.9601 12.9149 17.7959 13.2555 17.7955C14.5612 17.794 15.8669 17.7942 17.1726 17.7955C17.5143 17.7958 17.7122 17.9567 17.715 18.2278C17.7178 18.5063 17.525 18.6719 17.1839 18.6733C16.5311 18.6759 15.8782 18.6741 15.1961 18.6741Z" fill="white"/>
<path d="M9.2544 8.50934C8.81362 10.0942 7.30736 11.1989 5.75181 11.0937C4.02942 10.9773 2.65596 9.73307 2.43546 8.08933C2.18259 6.20429 3.49593 4.45098 5.37889 4.15985C7.2178 3.87553 9.00795 5.14736 9.3122 7.00949C9.39016 7.48662 9.28453 7.99374 9.2544 8.50934ZM4.79746 5.25322C3.08366 6.06236 2.98137 8.10181 3.69944 8.97371C3.95128 8.7044 4.20708 8.43086 4.49669 8.12117C4.24217 7.41593 4.3922 6.76636 4.97856 6.3145C5.48438 5.9247 6.23038 5.90923 6.75542 6.27764C7.37045 6.70919 7.52862 7.34856 7.25213 8.23147C7.53065 8.49764 7.80091 8.75592 8.07819 9.0209C8.46712 8.40068 8.59337 7.73655 8.4243 7.03103C8.03675 5.41383 6.43273 4.61376 4.79746 5.25322ZM6.31793 8.9718C6.01195 8.96574 5.706 8.95696 5.4 8.95507C5.29221 8.95441 5.15308 8.93071 5.08206 8.98628C4.82178 9.18997 4.58414 9.42259 4.3321 9.6496C5.15917 10.3877 6.7492 10.3767 7.44125 9.63778C7.20656 9.42515 6.98372 9.19848 6.73261 9.00934C6.646 8.94411 6.48899 8.97235 6.31793 8.9718ZM5.66925 8.12119C6.2599 8.30012 6.63569 7.74719 6.50197 7.34549C6.40983 7.0687 6.18017 6.89389 5.89106 6.89346C5.5984 6.89303 5.37152 7.06277 5.28559 7.34642C5.19283 7.65261 5.2975 7.88285 5.66925 8.12119Z" fill="white"/>
<path d="M2.40611 15.2085C2.51601 14.6723 2.8458 14.3658 3.35863 14.3629C5.04593 14.3534 6.73336 14.3525 8.42064 14.3633C8.99739 14.3669 9.38007 14.7751 9.39079 15.3545C9.398 15.7445 9.39827 16.1348 9.39076 16.5248C9.3793 17.1187 8.98509 17.5083 8.3911 17.5094C6.72326 17.5124 5.0554 17.5125 3.38756 17.5093C2.80063 17.5082 2.41652 17.1404 2.39766 16.5493C2.38368 16.1111 2.39963 15.6719 2.40611 15.2085ZM3.41721 16.6313C5.1081 16.6313 6.79899 16.6313 8.50036 16.6313C8.50036 16.1538 8.50036 15.7191 8.50036 15.2761C8.44464 15.262 8.399 15.2404 8.35332 15.2403C6.72615 15.2384 5.09897 15.24 3.4718 15.2359C3.3153 15.2355 3.26846 15.2981 3.27122 15.4446C3.27744 15.7758 3.26853 16.1072 3.27726 16.4383C3.27895 16.5023 3.33291 16.565 3.41721 16.6313Z" fill="white"/>
<path d="M8.60122 26.8153C6.82014 26.8198 5.06472 26.8269 3.30935 26.8206C2.83655 26.8189 2.4539 26.4855 2.41985 26.0176C2.38319 25.5138 2.38049 25.0031 2.41821 24.4996C2.45691 23.9829 2.86616 23.6748 3.44495 23.6729C4.74205 23.6687 6.03918 23.6715 7.33629 23.6715C7.67764 23.6715 8.01909 23.6661 8.36031 23.6727C9.00704 23.6852 9.38677 24.0745 9.39185 24.7251C9.3946 25.0761 9.39436 25.4273 9.39194 25.7784C9.38813 26.3295 9.16311 26.6319 8.60122 26.8153ZM5.85435 24.551C5.07497 24.5509 4.29553 24.547 3.51627 24.5568C3.4354 24.5578 3.28796 24.6368 3.28583 24.6847C3.2674 25.0985 3.27523 25.5136 3.27523 25.9303C5.04011 25.9303 6.76027 25.9303 8.51293 25.9303C8.51293 25.5461 8.50204 25.1784 8.51716 24.8117C8.52572 24.604 8.45388 24.5444 8.25103 24.547C7.47177 24.5568 6.69231 24.5509 5.85435 24.551Z" fill="white"/>
<path d="M8.16089 22.1799C7.40116 22.1799 6.66971 22.1792 5.93827 22.1802C5.69103 22.1805 5.49142 22.1001 5.42072 21.8435C5.33904 21.547 5.5504 21.3043 5.89473 21.302C6.66515 21.2967 7.4358 21.2911 8.20599 21.3055C8.44796 21.3101 8.53173 21.2428 8.51735 20.9959C8.49706 20.6477 8.51221 20.2974 8.51221 19.9251C6.76978 19.9251 5.04985 19.9251 3.27793 19.9251C3.27793 20.3393 3.27339 20.7627 3.28538 21.1858C3.2865 21.2254 3.38832 21.2851 3.44988 21.295C3.56409 21.3133 3.68319 21.2991 3.8001 21.303C4.05775 21.3114 4.20101 21.4655 4.22312 21.7025C4.2444 21.9307 4.12094 22.1131 3.89117 22.1532C3.08793 22.2933 2.35945 22.0254 2.39165 21.0414C2.40281 20.7004 2.38574 20.3586 2.39533 20.0175C2.41279 19.3961 2.79361 19.0247 3.41544 19.0236C5.07337 19.0208 6.73132 19.0206 8.38926 19.024C8.98345 19.0253 9.37739 19.4156 9.39065 20.0087C9.39784 20.3304 9.39212 20.6523 9.3921 20.9742C9.39202 21.8382 9.05219 22.1788 8.16089 22.1799Z" fill="white"/>
</svg>
